<svg width="6" height="8" viewBox="0 0 6 8" fill="none" xmlns="http://www.w3.org/2000/svg">
<path d="M0.161239 6.70532C0.109733 6.74026 0.069468 6.78135 0.0427411 6.82626C0.0160143 6.87117 0.0033491 6.91901 0.0054696 6.96706C0.0075901 7.01511 0.0244547 7.06241 0.0550998 7.10628C0.0857448 7.15015 0.12957 7.18972 0.184074 7.22274C0.238578 7.25575 0.302694 7.28156 0.37276 7.29869C0.442825 7.31582 0.517468 7.32394 0.592428 7.32258C0.667388 7.32122 0.741197 7.31041 0.809639 7.29077C0.878082 7.27112 0.939818 7.24303 0.991323 7.2081L5.84395 3.91481C5.94416 3.84686 6 3.75691 6 3.66342C6 3.56992 5.94416 3.47997 5.84395 3.41203L0.991324 0.118369C0.940159 0.082669 0.878436 0.0538413 0.809742 0.0335602C0.741047 0.0132792 0.666751 0.00194908 0.591168 0.000227839C0.515584 -0.0014934 0.44022 0.00642854 0.369453 0.0235337C0.298686 0.0406388 0.233928 0.0665859 0.178939 0.0998682C0.12395 0.13315 0.079826 0.173104 0.049131 0.217409C0.018436 0.261714 0.00178172 0.309486 0.000134978 0.357951C-0.00151176 0.406416 0.0118819 0.454608 0.0395384 0.499727C0.067195 0.544846 0.108563 0.585993 0.161239 0.620778L4.64392 3.66342L0.161239 6.70532Z" fill="black"/>
</svg>
